<svg width="36" height="36" viewBox="0 0 36 36" fill="none" xmlns="http://www.w3.org/2000/svg">
<path d="M5.3999 11.04C5.3999 7.72633 8.08619 5.04004 11.3999 5.04004H24.6799C28.5459 5.04004 31.6799 8.17405 31.6799 12.04V26.96C31.6799 29.1692 29.889 30.96 27.6799 30.96H10.3999C7.63847 30.96 5.3999 28.7215 5.3999 25.96V11.04Z" fill="#845EC2"/>
<path d="M28.6799 4.31982H7.67993C6.02308 4.31982 4.67993 5.66297 4.67993 7.31982V28.3198C4.67993 29.9767 6.02308 31.3198 7.67993 31.3198H28.6799C30.3368 31.3198 31.6799 29.9767 31.6799 28.3198V7.31982C31.6799 5.66297 30.3368 4.31982 28.6799 4.31982Z" stroke="#845EC2" stroke-width="5" stroke-linecap="round" stroke-linejoin="round"/>
<path d="M18 11.8799V23.8799" stroke="white" stroke-width="3" stroke-linecap="round" stroke-linejoin="round"/>
<path d="M11.8801 18H23.8801" stroke="white" stroke-width="3" stroke-linecap="round" stroke-linejoin="round"/>
</svg>
